# Blender 3.3.1
# www.blender.org
mtllib PlaceHolderObject.mtl
o Cube
v 0.950184 0.424286 -1.229949
v 2.010382 -0.625755 0.101739
v -0.293287 1.010862 0.222535
v 0.766912 -0.039179 1.554222
v -0.202969 -1.173632 -1.571853
v 0.857230 -2.223673 -0.240166
v -1.446439 -0.587056 -0.119369
v -0.386240 -1.637097 1.212318
vn -0.5301 0.5250 -0.6658
vn -0.6217 0.2933 0.7262
vn -0.5766 -0.7990 -0.1710
vn 0.5301 -0.5250 0.6658
vn 0.5766 0.7990 0.1710
vn 0.6217 -0.2933 -0.7262
vt 0.625000 0.500000
vt 0.375000 0.500000
vt 0.625000 0.750000
vt 0.375000 0.750000
vt 0.875000 0.500000
vt 0.625000 0.250000
vt 0.125000 0.500000
vt 0.375000 0.250000
vt 0.875000 0.750000
vt 0.625000 1.000000
vt 0.625000 0.000000
vt 0.375000 1.000000
vt 0.375000 0.000000
vt 0.125000 0.750000
s 0
usemtl Material
f 1/1/1 5/5/1 7/9/1 3/3/1
f 4/4/2 3/3/2 7/10/2 8/12/2
f 8/13/3 7/11/3 5/6/3 6/8/3
f 6/7/4 2/2/4 4/4/4 8/14/4
f 2/2/5 1/1/5 3/3/5 4/4/5
f 6/8/6 5/6/6 1/1/6 2/2/6
